<mxfile host="app.diagrams.net" agent="Mozilla/5.0 (Windows NT 10.0; Win64; x64) AppleWebKit/537.36 (KHTML, like Gecko) Chrome/135.0.0.0 Safari/537.36 Edg/135.0.0.0" version="26.2.14">
  <diagram name="Page-1" id="oHhH3tivd5vpnk2ynprT">
    <mxGraphModel dx="1257" dy="780" grid="1" gridSize="10" guides="1" tooltips="1" connect="1" arrows="1" fold="1" page="0" pageScale="1" pageWidth="850" pageHeight="1100" math="0" shadow="0">
      <root>
        <mxCell id="0" />
        <mxCell id="1" parent="0" />
        <mxCell id="t9NGlXXFF9HnsuITQncO-1" value="CEO" style="text;html=1;align=center;verticalAlign=middle;whiteSpace=wrap;rounded=0;" vertex="1" parent="1">
          <mxGeometry x="245" y="80" width="60" height="30" as="geometry" />
        </mxCell>
        <mxCell id="t9NGlXXFF9HnsuITQncO-2" value="CTO" style="text;html=1;align=center;verticalAlign=middle;whiteSpace=wrap;rounded=0;" vertex="1" parent="1">
          <mxGeometry x="-60" y="210" width="60" height="30" as="geometry" />
        </mxCell>
        <mxCell id="t9NGlXXFF9HnsuITQncO-3" value="CFO" style="text;html=1;align=center;verticalAlign=middle;resizable=0;points=[];autosize=1;strokeColor=none;fillColor=none;" vertex="1" parent="1">
          <mxGeometry x="95" y="210" width="50" height="30" as="geometry" />
        </mxCell>
        <mxCell id="t9NGlXXFF9HnsuITQncO-4" value="CMO" style="text;html=1;align=center;verticalAlign=middle;resizable=0;points=[];autosize=1;strokeColor=none;fillColor=none;" vertex="1" parent="1">
          <mxGeometry x="250" y="210" width="50" height="30" as="geometry" />
        </mxCell>
        <mxCell id="t9NGlXXFF9HnsuITQncO-5" value="Tech Lead" style="text;html=1;align=center;verticalAlign=middle;whiteSpace=wrap;rounded=0;" vertex="1" parent="1">
          <mxGeometry x="-60" y="300" width="60" height="30" as="geometry" />
        </mxCell>
        <mxCell id="t9NGlXXFF9HnsuITQncO-6" value="Quản lý sản phẩm" style="text;html=1;align=center;verticalAlign=middle;whiteSpace=wrap;rounded=0;" vertex="1" parent="1">
          <mxGeometry x="400" y="210" width="60" height="30" as="geometry" />
        </mxCell>
        <mxCell id="t9NGlXXFF9HnsuITQncO-7" value="Kế toán" style="text;html=1;align=center;verticalAlign=middle;whiteSpace=wrap;rounded=0;" vertex="1" parent="1">
          <mxGeometry x="90" y="300" width="60" height="30" as="geometry" />
        </mxCell>
        <mxCell id="t9NGlXXFF9HnsuITQncO-8" value="Chuyên viên Marketing" style="text;html=1;align=center;verticalAlign=middle;whiteSpace=wrap;rounded=0;" vertex="1" parent="1">
          <mxGeometry x="190" y="300" width="70" height="30" as="geometry" />
        </mxCell>
        <mxCell id="t9NGlXXFF9HnsuITQncO-9" value="Nhân viên bán hàng" style="text;html=1;align=center;verticalAlign=middle;whiteSpace=wrap;rounded=0;" vertex="1" parent="1">
          <mxGeometry x="300" y="300" width="60" height="30" as="geometry" />
        </mxCell>
        <mxCell id="t9NGlXXFF9HnsuITQncO-10" value="Hỗ trợ" style="text;html=1;align=center;verticalAlign=middle;whiteSpace=wrap;rounded=0;" vertex="1" parent="1">
          <mxGeometry x="550" y="210" width="60" height="30" as="geometry" />
        </mxCell>
        <mxCell id="t9NGlXXFF9HnsuITQncO-11" value="Quản lý dự án" style="text;html=1;align=center;verticalAlign=middle;whiteSpace=wrap;rounded=0;" vertex="1" parent="1">
          <mxGeometry x="400" y="300" width="60" height="30" as="geometry" />
        </mxCell>
        <mxCell id="t9NGlXXFF9HnsuITQncO-12" value="Nhân sự" style="text;html=1;align=center;verticalAlign=middle;whiteSpace=wrap;rounded=0;" vertex="1" parent="1">
          <mxGeometry x="500" y="300" width="60" height="30" as="geometry" />
        </mxCell>
        <mxCell id="t9NGlXXFF9HnsuITQncO-13" value="Hỗ trợ khách hàng" style="text;html=1;align=center;verticalAlign=middle;whiteSpace=wrap;rounded=0;" vertex="1" parent="1">
          <mxGeometry x="600" y="300" width="70" height="30" as="geometry" />
        </mxCell>
        <mxCell id="t9NGlXXFF9HnsuITQncO-14" value="Kỹ sư Phần mềm" style="text;html=1;align=center;verticalAlign=middle;whiteSpace=wrap;rounded=0;" vertex="1" parent="1">
          <mxGeometry x="-150" y="380" width="80" height="30" as="geometry" />
        </mxCell>
        <mxCell id="t9NGlXXFF9HnsuITQncO-15" value="Kỹ sư DevOps" style="text;html=1;align=center;verticalAlign=middle;whiteSpace=wrap;rounded=0;" vertex="1" parent="1">
          <mxGeometry x="-70" y="380" width="80" height="30" as="geometry" />
        </mxCell>
        <mxCell id="t9NGlXXFF9HnsuITQncO-16" value="Thiết kế UI/UX" style="text;html=1;align=center;verticalAlign=middle;whiteSpace=wrap;rounded=0;" vertex="1" parent="1">
          <mxGeometry y="380" width="80" height="30" as="geometry" />
        </mxCell>
        <mxCell id="t9NGlXXFF9HnsuITQncO-20" value="" style="endArrow=none;html=1;rounded=0;entryX=0.5;entryY=1;entryDx=0;entryDy=0;" edge="1" parent="1" source="t9NGlXXFF9HnsuITQncO-4" target="t9NGlXXFF9HnsuITQncO-1">
          <mxGeometry width="50" height="50" relative="1" as="geometry">
            <mxPoint x="190" y="200" as="sourcePoint" />
            <mxPoint x="240" y="150" as="targetPoint" />
            <Array as="points">
              <mxPoint x="275" y="150" />
            </Array>
          </mxGeometry>
        </mxCell>
        <mxCell id="t9NGlXXFF9HnsuITQncO-21" value="" style="endArrow=none;html=1;rounded=0;" edge="1" parent="1">
          <mxGeometry width="50" height="50" relative="1" as="geometry">
            <mxPoint x="-30" y="160" as="sourcePoint" />
            <mxPoint x="580" y="160" as="targetPoint" />
          </mxGeometry>
        </mxCell>
        <mxCell id="t9NGlXXFF9HnsuITQncO-22" value="" style="endArrow=none;html=1;rounded=0;exitX=0.5;exitY=0;exitDx=0;exitDy=0;" edge="1" parent="1" source="t9NGlXXFF9HnsuITQncO-2">
          <mxGeometry width="50" height="50" relative="1" as="geometry">
            <mxPoint x="-200" y="190" as="sourcePoint" />
            <mxPoint x="-30" y="160" as="targetPoint" />
            <Array as="points">
              <mxPoint x="-30" y="190" />
            </Array>
          </mxGeometry>
        </mxCell>
        <mxCell id="t9NGlXXFF9HnsuITQncO-23" value="" style="endArrow=none;html=1;rounded=0;exitX=0.5;exitY=0;exitDx=0;exitDy=0;" edge="1" parent="1">
          <mxGeometry width="50" height="50" relative="1" as="geometry">
            <mxPoint x="119.55000000000001" y="210" as="sourcePoint" />
            <mxPoint x="119.55000000000001" y="160" as="targetPoint" />
            <Array as="points">
              <mxPoint x="119.55000000000001" y="190" />
            </Array>
          </mxGeometry>
        </mxCell>
        <mxCell id="t9NGlXXFF9HnsuITQncO-24" value="" style="endArrow=none;html=1;rounded=0;exitX=0.5;exitY=0;exitDx=0;exitDy=0;" edge="1" parent="1">
          <mxGeometry width="50" height="50" relative="1" as="geometry">
            <mxPoint x="429.33" y="210" as="sourcePoint" />
            <mxPoint x="429.33" y="160" as="targetPoint" />
            <Array as="points">
              <mxPoint x="429.33" y="190" />
            </Array>
          </mxGeometry>
        </mxCell>
        <mxCell id="t9NGlXXFF9HnsuITQncO-25" value="" style="endArrow=none;html=1;rounded=0;exitX=0.5;exitY=0;exitDx=0;exitDy=0;" edge="1" parent="1">
          <mxGeometry width="50" height="50" relative="1" as="geometry">
            <mxPoint x="579.44" y="210" as="sourcePoint" />
            <mxPoint x="579.44" y="160" as="targetPoint" />
            <Array as="points">
              <mxPoint x="579.44" y="190" />
            </Array>
          </mxGeometry>
        </mxCell>
        <mxCell id="t9NGlXXFF9HnsuITQncO-26" value="" style="endArrow=none;html=1;rounded=0;exitX=0.5;exitY=0;exitDx=0;exitDy=0;" edge="1" parent="1">
          <mxGeometry width="50" height="50" relative="1" as="geometry">
            <mxPoint x="-30.32" y="290" as="sourcePoint" />
            <mxPoint x="-30.32" y="240" as="targetPoint" />
            <Array as="points">
              <mxPoint x="-30.32" y="270" />
            </Array>
          </mxGeometry>
        </mxCell>
        <mxCell id="t9NGlXXFF9HnsuITQncO-27" value="" style="endArrow=none;html=1;rounded=0;exitX=0.5;exitY=0;exitDx=0;exitDy=0;" edge="1" parent="1">
          <mxGeometry width="50" height="50" relative="1" as="geometry">
            <mxPoint x="119.62" y="290" as="sourcePoint" />
            <mxPoint x="119.62" y="240" as="targetPoint" />
            <Array as="points">
              <mxPoint x="119.62" y="270" />
            </Array>
          </mxGeometry>
        </mxCell>
        <mxCell id="t9NGlXXFF9HnsuITQncO-28" value="" style="endArrow=none;html=1;rounded=0;" edge="1" parent="1">
          <mxGeometry width="50" height="50" relative="1" as="geometry">
            <mxPoint x="275" y="270" as="sourcePoint" />
            <mxPoint x="274.62" y="240" as="targetPoint" />
            <Array as="points">
              <mxPoint x="274.62" y="270" />
            </Array>
          </mxGeometry>
        </mxCell>
        <mxCell id="t9NGlXXFF9HnsuITQncO-29" value="" style="endArrow=none;html=1;rounded=0;exitX=0.5;exitY=0;exitDx=0;exitDy=0;" edge="1" parent="1">
          <mxGeometry width="50" height="50" relative="1" as="geometry">
            <mxPoint x="430" y="290" as="sourcePoint" />
            <mxPoint x="430" y="240" as="targetPoint" />
            <Array as="points">
              <mxPoint x="430" y="270" />
            </Array>
          </mxGeometry>
        </mxCell>
        <mxCell id="t9NGlXXFF9HnsuITQncO-31" value="" style="endArrow=none;html=1;rounded=0;" edge="1" parent="1">
          <mxGeometry width="50" height="50" relative="1" as="geometry">
            <mxPoint x="580.08" y="270" as="sourcePoint" />
            <mxPoint x="579.7" y="240" as="targetPoint" />
            <Array as="points">
              <mxPoint x="579.7" y="270" />
            </Array>
          </mxGeometry>
        </mxCell>
        <mxCell id="t9NGlXXFF9HnsuITQncO-33" value="" style="endArrow=none;html=1;rounded=0;" edge="1" parent="1">
          <mxGeometry width="50" height="50" relative="1" as="geometry">
            <mxPoint x="220" y="270" as="sourcePoint" />
            <mxPoint x="330" y="270" as="targetPoint" />
          </mxGeometry>
        </mxCell>
        <mxCell id="t9NGlXXFF9HnsuITQncO-34" value="" style="endArrow=none;html=1;rounded=0;" edge="1" parent="1">
          <mxGeometry width="50" height="50" relative="1" as="geometry">
            <mxPoint x="530" y="270" as="sourcePoint" />
            <mxPoint x="630" y="270" as="targetPoint" />
          </mxGeometry>
        </mxCell>
        <mxCell id="t9NGlXXFF9HnsuITQncO-35" value="" style="endArrow=none;html=1;rounded=0;" edge="1" parent="1">
          <mxGeometry width="50" height="50" relative="1" as="geometry">
            <mxPoint x="-110" y="350" as="sourcePoint" />
            <mxPoint x="40" y="350" as="targetPoint" />
          </mxGeometry>
        </mxCell>
        <mxCell id="t9NGlXXFF9HnsuITQncO-36" value="" style="endArrow=none;html=1;rounded=0;" edge="1" parent="1">
          <mxGeometry width="50" height="50" relative="1" as="geometry">
            <mxPoint x="-29.980000000000018" y="350" as="sourcePoint" />
            <mxPoint x="-30" y="330" as="targetPoint" />
            <Array as="points">
              <mxPoint x="-30.360000000000014" y="350" />
            </Array>
          </mxGeometry>
        </mxCell>
        <mxCell id="t9NGlXXFF9HnsuITQncO-37" value="" style="endArrow=none;html=1;rounded=0;" edge="1" parent="1">
          <mxGeometry width="50" height="50" relative="1" as="geometry">
            <mxPoint x="40.01999999999998" y="370" as="sourcePoint" />
            <mxPoint x="40" y="350" as="targetPoint" />
            <Array as="points">
              <mxPoint x="39.639999999999986" y="370" />
            </Array>
          </mxGeometry>
        </mxCell>
        <mxCell id="t9NGlXXFF9HnsuITQncO-38" value="" style="endArrow=none;html=1;rounded=0;" edge="1" parent="1">
          <mxGeometry width="50" height="50" relative="1" as="geometry">
            <mxPoint x="-29.980000000000018" y="370" as="sourcePoint" />
            <mxPoint x="-30" y="350" as="targetPoint" />
            <Array as="points">
              <mxPoint x="-30.360000000000014" y="370" />
            </Array>
          </mxGeometry>
        </mxCell>
        <mxCell id="t9NGlXXFF9HnsuITQncO-39" value="" style="endArrow=none;html=1;rounded=0;" edge="1" parent="1">
          <mxGeometry width="50" height="50" relative="1" as="geometry">
            <mxPoint x="-109.98000000000002" y="370" as="sourcePoint" />
            <mxPoint x="-110" y="350" as="targetPoint" />
            <Array as="points">
              <mxPoint x="-110.36000000000001" y="370" />
            </Array>
          </mxGeometry>
        </mxCell>
        <mxCell id="t9NGlXXFF9HnsuITQncO-40" value="" style="endArrow=none;html=1;rounded=0;" edge="1" parent="1">
          <mxGeometry width="50" height="50" relative="1" as="geometry">
            <mxPoint x="220.38" y="290" as="sourcePoint" />
            <mxPoint x="220.36" y="270" as="targetPoint" />
            <Array as="points">
              <mxPoint x="220" y="290" />
            </Array>
          </mxGeometry>
        </mxCell>
        <mxCell id="t9NGlXXFF9HnsuITQncO-42" value="" style="endArrow=none;html=1;rounded=0;" edge="1" parent="1">
          <mxGeometry width="50" height="50" relative="1" as="geometry">
            <mxPoint x="330.08" y="290" as="sourcePoint" />
            <mxPoint x="330.06" y="270" as="targetPoint" />
            <Array as="points">
              <mxPoint x="329.7" y="290" />
            </Array>
          </mxGeometry>
        </mxCell>
        <mxCell id="t9NGlXXFF9HnsuITQncO-43" value="" style="endArrow=none;html=1;rounded=0;" edge="1" parent="1">
          <mxGeometry width="50" height="50" relative="1" as="geometry">
            <mxPoint x="530.08" y="290" as="sourcePoint" />
            <mxPoint x="530.0600000000001" y="270" as="targetPoint" />
            <Array as="points">
              <mxPoint x="529.7" y="290" />
            </Array>
          </mxGeometry>
        </mxCell>
        <mxCell id="t9NGlXXFF9HnsuITQncO-44" value="" style="endArrow=none;html=1;rounded=0;" edge="1" parent="1">
          <mxGeometry width="50" height="50" relative="1" as="geometry">
            <mxPoint x="630.38" y="290" as="sourcePoint" />
            <mxPoint x="630.36" y="270" as="targetPoint" />
            <Array as="points">
              <mxPoint x="630" y="290" />
            </Array>
          </mxGeometry>
        </mxCell>
      </root>
    </mxGraphModel>
  </diagram>
</mxfile>
